<svg width="20" height="20" viewBox="0 0 20 20" fill="none" xmlns="http://www.w3.org/2000/svg">
<path fill-rule="evenodd" clip-rule="evenodd" d="M2.54065 3.06878C2.9892 2.62396 3.59646 2.375 4.22857 2.375H7.31681C7.66199 2.375 7.94181 2.65482 7.94181 3C7.94181 3.34518 7.66199 3.625 7.31681 3.625H4.22857C3.92462 3.625 3.63417 3.74479 3.42083 3.95635C3.20766 4.16774 3.08887 4.45333 3.08887 4.75V15.25C3.08887 15.5467 3.20766 15.8323 3.42083 16.0436C3.63417 16.2552 3.92462 16.375 4.22857 16.375H7.31681C7.66199 16.375 7.94181 16.6548 7.94181 17C7.94181 17.3452 7.66199 17.625 7.31681 17.625H4.22857C3.59646 17.625 2.9892 17.376 2.54065 16.9312C2.09192 16.4862 1.83887 15.8816 1.83887 15.25V4.75C1.83887 4.11841 2.09192 3.51376 2.54065 3.06878ZM13.2835 5.54806C13.5331 5.30963 13.9287 5.31869 14.1671 5.56829L17.9881 9.56829C18.2188 9.80985 18.2188 10.1902 17.9881 10.4317L14.1671 14.4317C13.9287 14.6813 13.5331 14.6904 13.2835 14.4519C13.0339 14.2135 13.0248 13.8179 13.2632 13.5683L16.0748 10.625H7.53613C7.19096 10.625 6.91113 10.3452 6.91113 10C6.91113 9.65482 7.19096 9.375 7.53613 9.375H16.0748L13.2632 6.43171C13.0248 6.18211 13.0339 5.78649 13.2835 5.54806Z" fill="#4B5563"/>
</svg>
