<svg width="20" height="20" viewBox="0 0 20 20" fill="none" xmlns="http://www.w3.org/2000/svg">
<path fill-rule="evenodd" clip-rule="evenodd" d="M10 2.625C8.68832 2.625 7.625 3.68832 7.625 5C7.625 6.31168 8.68832 7.375 10 7.375C11.3117 7.375 12.375 6.31168 12.375 5C12.375 3.68832 11.3117 2.625 10 2.625ZM6.375 5C6.375 2.99797 7.99797 1.375 10 1.375C12.002 1.375 13.625 2.99797 13.625 5C13.625 7.00203 12.002 8.625 10 8.625C7.99797 8.625 6.375 7.00203 6.375 5ZM3.60256 12.5716C5.07284 11.4307 7.22254 10.7718 10 10.7718C12.7775 10.7718 14.9272 11.4307 16.3974 12.5716C17.8816 13.7233 18.625 15.3312 18.625 17.0937C18.625 17.8758 18.0403 18.625 17.1843 18.625H2.81569C1.95971 18.625 1.375 17.8758 1.375 17.0937C1.375 15.3312 2.11842 13.7233 3.60256 12.5716ZM4.36887 13.5592C3.19587 14.4694 2.625 15.7098 2.625 17.0937C2.625 17.1919 2.66074 17.269 2.70347 17.3164C2.74524 17.3629 2.78575 17.375 2.81569 17.375H17.1843C17.2143 17.375 17.2548 17.3629 17.2965 17.3164C17.3393 17.269 17.375 17.1919 17.375 17.0937C17.375 15.7098 16.8041 14.4694 15.6311 13.5592C14.4443 12.6382 12.594 12.0218 10 12.0218C7.40603 12.0218 5.55573 12.6382 4.36887 13.5592Z" fill="#4B5563"/>
</svg>
