<svg width="264" height="200" viewBox="0 0 264 200" fill="none" xmlns="http://www.w3.org/2000/svg">
<g clip-path="url(#clip0_85_1118)">
<path fill-rule="evenodd" clip-rule="evenodd" d="M132.151 0C134.889 0 137.108 2.22825 137.108 4.97694V8.70655C162.158 11.2038 181.722 32.4232 181.722 58.2304C181.722 70.1816 177.527 81.1489 170.533 89.7286L176.765 95.9847C178.701 97.9283 178.701 101.08 176.765 103.023C174.829 104.967 171.69 104.967 169.754 103.023L163.523 96.767C154.977 103.788 144.054 108 132.151 108C120.247 108 109.323 103.788 100.778 96.7664L94.5458 103.023C92.6099 104.967 89.4712 104.967 87.5353 103.023C85.5994 101.08 85.5994 97.9283 87.5353 95.9847L93.7672 89.7278C86.7744 81.1483 82.579 70.1812 82.579 58.2304C82.579 32.423 102.143 11.2034 127.194 8.70649V4.97694C127.194 2.22825 129.413 0 132.151 0ZM126.876 73.2719C124.609 72.569 123.339 70.1638 124.037 67.8952L131.546 43.4834C132.246 41.2076 134.66 39.9325 136.934 40.6376C139.201 41.3405 140.471 43.7458 139.774 46.0143L132.265 70.4262C131.565 72.7019 129.15 73.977 126.876 73.2719ZM114.408 51.0519C116.1 49.3859 116.127 46.6654 114.467 44.9669C112.799 43.2587 110.06 43.2321 108.358 44.9076L97.3272 55.7695C96.5316 56.553 96.5316 57.8362 97.3272 58.6197L108.358 69.4816C110.06 71.1571 112.799 71.1305 114.467 69.4223C116.127 67.7238 116.1 65.0033 114.408 63.3373L108.17 57.1946L114.408 51.0519ZM149.404 51.0521C147.712 49.3861 147.685 46.6656 149.345 44.9671C151.013 43.2589 153.752 43.2323 155.454 44.9078L166.485 55.7697C167.28 56.5532 167.28 57.8364 166.485 58.6199L155.454 69.4818C153.752 71.1573 151.013 71.1307 149.345 69.4225C147.685 67.724 147.712 65.0035 149.404 63.3375L155.642 57.1948L149.404 51.0521Z" fill="white"/>
<path d="M162.354 4.47347C163.7 2.07741 166.739 1.21688 169.017 2.74568C176.198 7.56473 182.391 13.7515 187.226 20.935C188.76 23.2143 187.919 26.2697 185.539 27.6335C183.162 28.9954 180.154 28.1519 178.592 25.8957C174.681 20.243 169.771 15.3385 164.12 11.4391C161.865 9.8829 161.01 6.86637 162.354 4.47347Z" fill="white"/>
<path d="M76.7739 20.9352C75.2398 23.2145 76.0814 26.2699 78.4611 27.6337C80.8376 28.9957 83.8464 28.1521 85.4078 25.8959C89.3195 20.2431 94.2289 15.3385 99.8799 11.439C102.135 9.88289 102.991 6.86636 101.646 4.47345C100.3 2.0774 97.2608 1.21686 94.9828 2.74565C87.802 7.56474 81.6092 13.7516 76.7739 20.9352Z" fill="white"/>
<path d="M4.37841 195.795C5.06346 196.578 6.00169 196.97 7.19309 196.97C12.6735 196.97 17.7817 196.307 22.5175 194.981C27.2533 193.654 31.5573 191.86 35.4293 189.599C40.5822 186.585 44.9457 182.982 48.5199 178.792C52.1239 174.571 54.8492 170.155 56.6959 165.543C58.5723 160.9 59.5106 156.484 59.5106 152.293C59.5106 148.133 58.6915 144.365 57.0533 140.988C55.4449 137.612 52.9727 134.944 49.6368 132.984C46.3307 130.995 42.1161 130 36.9931 130C32.1679 130 27.5065 130.739 23.009 132.216C18.5114 133.693 14.5649 135.562 11.1694 137.823C7.74412 140.114 5.01878 142.541 2.9934 145.103C0.9978 147.666 0 150.047 0 152.248C0 154.539 1.28076 155.685 3.84227 155.685C5.21239 155.685 6.40379 155.353 7.41648 154.69C8.42918 154.027 9.3823 153.168 10.2758 152.112C11.3183 150.816 12.197 149.61 12.9118 148.495C13.6565 147.379 14.7138 146.068 16.0839 144.561C17.5136 143.234 19.3156 142.044 21.4899 140.988C23.6642 139.903 26.0322 139.044 28.5937 138.411C31.185 137.778 33.7614 137.461 36.3229 137.461C40.4928 137.461 43.5756 138.758 45.5712 141.35C47.5668 143.943 48.5646 147.259 48.5646 151.298C48.5646 154.765 47.6412 158.564 45.7945 162.694C43.9777 166.794 41.4459 170.683 38.1994 174.36C34.923 178.099 31.1403 181.264 26.8512 183.857C22.5622 186.449 18.0646 187.987 13.3586 188.469C15.2648 185.846 17.2307 182.907 19.256 179.651C21.3112 176.365 23.3366 172.974 25.3322 169.477C27.4767 165.648 29.1447 162.649 30.3361 160.478C31.5275 158.277 32.5998 156.288 33.5529 154.509C34.6549 152.61 35.206 150.771 35.206 148.992C35.206 147.907 34.923 146.972 34.3571 146.189C33.7912 145.405 32.838 145.013 31.4977 145.013C30.6637 145.013 29.4723 145.45 27.9235 146.324C26.4045 147.168 24.8705 148.811 23.3217 151.253L4.95921 188.198C4.48265 188.891 4.09545 189.645 3.7976 190.459C3.49975 191.273 3.35082 192.117 3.35082 192.991C3.35082 194.106 3.69335 195.041 4.37841 195.795Z" fill="white"/>
<path d="M174.287 148.857C173.543 148.857 172.694 148.706 171.741 148.404C170.788 148.073 170.311 147.394 170.311 146.37C170.311 145.978 170.52 145.42 170.937 144.696C171.383 143.973 171.815 143.234 172.232 142.481C172.649 141.697 172.858 141.064 172.858 140.581C172.858 139.556 172.143 138.803 170.713 138.32C169.283 137.868 166.886 137.642 163.52 137.642C158.725 137.823 154.451 138.185 150.698 138.727C146.945 139.27 143.534 139.978 140.466 140.853C138.471 141.425 136.505 142.044 134.569 142.707C132.633 143.34 130.682 144.018 128.716 144.742C127.704 145.133 126.676 145.51 125.633 145.872C120.657 147.927 116.605 150.036 114.127 151.326L114.125 151.327C112.896 151.966 112.054 152.405 111.679 152.534L111.098 152.715C110.8 152.776 110.622 152.806 110.562 152.806C109.639 152.806 108.864 152.414 108.239 151.63C107.643 150.816 107.345 149.942 107.345 149.007C111.484 143.965 126.22 137.055 132.737 134.929C137.205 133.512 142.164 132.336 147.615 131.402C153.066 130.467 158.546 130 164.056 130C170.43 130 175.106 130.965 178.085 132.894C181.063 134.823 182.583 137.265 182.642 140.22C182.642 140.973 182.285 142.044 181.57 143.43C180.855 144.817 179.872 146.068 178.621 147.183C177.37 148.299 175.926 148.857 174.287 148.857Z" fill="white"/>
<path d="M122.506 198.598C121.553 198.598 120.749 198.342 120.093 197.829C119.438 197.347 119.111 196.624 119.111 195.659C119.111 195.327 119.14 194.966 119.2 194.574C119.289 194.152 119.453 193.699 119.691 193.217C121.955 188.484 124.219 183.932 126.482 179.561C128.746 175.189 130.92 171.105 133.005 167.306C134.048 165.407 135.06 163.598 136.043 161.88C137.056 160.131 138.024 158.473 138.947 156.906C141.688 152.354 144.085 148.736 146.14 146.053C148.196 143.34 149.61 141.983 150.385 141.983C151.427 141.983 152.202 142.285 152.708 142.888C153.214 143.491 153.468 144.199 153.468 145.013C153.468 145.616 153.304 146.279 152.976 147.003L140.869 172.145C139.558 174.918 138.188 177.767 136.758 180.691C135.329 183.585 134.033 186.178 132.871 188.469C131.739 190.73 130.92 192.283 130.414 193.127C129.52 194.966 128.314 196.337 126.795 197.242C125.306 198.146 123.876 198.598 122.506 198.598Z" fill="white"/>
<path d="M162.448 160.885C163.192 161.458 164.488 161.744 166.335 161.744C168.33 161.744 169.76 161.051 170.624 159.664C171.517 158.277 171.964 157.011 171.964 155.866C171.964 154.841 171.622 153.997 170.937 153.333C170.252 152.64 169.045 152.293 167.318 152.293C165.292 152.293 163.758 152.987 162.716 154.373C161.703 155.73 161.197 157.117 161.197 158.534C161.286 159.498 161.703 160.282 162.448 160.885Z" fill="white"/>
<path fill-rule="evenodd" clip-rule="evenodd" d="M149.67 196.925C151.07 198.161 152.976 198.779 155.389 198.779C157.652 198.779 159.901 198.206 162.135 197.061C163.306 196.468 164.46 195.787 165.599 195.018C165.434 195.64 165.352 196.125 165.352 196.473C165.352 197.438 165.665 198.267 166.29 198.96C166.916 199.653 167.764 200 168.837 200C170.147 200 171.22 199.382 172.053 198.146C172.917 196.91 173.647 195.508 174.243 193.941C174.838 192.343 175.419 191.016 175.985 189.961C176.908 188.484 177.921 186.841 179.023 185.032C180.155 183.224 181.451 181.46 182.91 179.742C184.31 178.053 185.844 176.667 187.512 175.581C189.18 174.466 190.893 173.908 192.65 173.908C193.692 173.908 194.214 174.466 194.214 175.581C194.214 176.034 194.124 176.486 193.946 176.938C193.767 177.36 193.529 177.812 193.231 178.295C192.129 180.133 190.788 182.153 189.21 184.354C187.661 186.555 186.291 188.77 185.099 191.001C183.908 193.232 183.312 195.327 183.312 197.287C183.372 198.071 183.774 198.719 184.519 199.231C185.293 199.744 186.067 200 186.842 200C188.152 200 189.225 199.382 190.059 198.146C190.922 196.91 191.652 195.508 192.248 193.941C192.843 192.343 193.424 191.016 193.99 189.961C194.914 188.484 195.926 186.841 197.028 185.032C198.16 183.224 199.456 181.46 200.915 179.742C202.315 178.053 203.849 176.667 205.517 175.581C207.185 174.466 208.898 173.908 210.655 173.908C211.697 173.908 212.219 174.466 212.219 175.581C212.219 176.034 212.129 176.486 211.951 176.938C211.772 177.36 211.534 177.812 211.236 178.295C210.432 179.591 209.389 181.023 208.108 182.59C206.857 184.128 205.726 185.801 204.713 187.61C203.73 189.388 203.238 191.303 203.238 193.353C203.238 195.644 203.909 197.317 205.249 198.372C206.619 199.427 208.406 199.955 210.61 199.955C212.874 199.955 215.167 199.382 217.491 198.236C219.814 197.091 222.107 195.614 224.371 193.805C224.729 193.518 225.084 193.229 225.436 192.937C225.509 193.122 225.586 193.306 225.667 193.488C226.56 195.418 227.841 196.985 229.509 198.191C231.207 199.367 233.247 199.955 235.63 199.955C238.698 199.955 241.84 199.367 245.057 198.191C248.274 197.016 251.192 195.689 253.814 194.212C255.958 192.976 257.969 191.695 259.845 190.368C261.721 189.042 262.853 188.183 263.24 187.791C263.628 187.308 263.851 186.886 263.911 186.525C263.97 186.133 264 185.801 264 185.53C264 185.168 263.851 184.716 263.553 184.173C263.285 183.6 262.794 183.314 262.079 183.314C261.9 183.314 261.692 183.329 261.453 183.359C261.245 183.389 261.007 183.495 260.739 183.676C260.441 183.796 259.502 184.339 257.924 185.304C256.345 186.268 254.454 187.293 252.25 188.379C250.046 189.494 247.752 190.489 245.369 191.363C242.987 192.207 240.768 192.629 238.713 192.629C236.062 192.629 234.572 191.695 234.245 189.826C238.296 188.318 241.661 186.826 244.342 185.349C247.052 183.842 249.212 182.364 250.82 180.917C252.428 179.5 253.56 178.099 254.216 176.712C254.871 175.325 255.199 173.999 255.199 172.733C255.199 170.592 254.588 168.919 253.367 167.713C252.146 166.507 250.299 165.904 247.827 165.904C244.401 165.904 241.229 166.643 238.31 168.12C235.421 169.567 232.934 171.406 230.849 173.637C228.764 175.868 227.156 178.204 226.024 180.646C224.942 183.013 224.392 185.162 224.372 187.093C223.939 187.45 223.492 187.803 223.031 188.152C221.631 189.238 220.201 190.157 218.742 190.911C217.312 191.634 215.972 191.996 214.721 191.996C214.065 191.996 213.529 191.906 213.112 191.725C212.725 191.544 212.531 191.122 212.531 190.459C212.531 189.464 212.874 188.394 213.559 187.248C214.274 186.102 215.048 185.032 215.882 184.037C216.746 183.043 217.386 182.289 217.803 181.776C218.905 180.42 219.859 178.928 220.663 177.3C221.497 175.672 221.914 173.953 221.914 172.145C221.914 169.854 221.169 168.256 219.68 167.351C218.191 166.417 216.448 165.95 214.453 165.95C211.831 165.95 209.598 166.553 207.751 167.758C205.904 168.934 204.281 170.23 202.881 171.647C202.762 169.597 202.077 168.135 200.826 167.261C199.575 166.387 198.115 165.95 196.447 165.95C194.214 165.95 192.263 166.357 190.595 167.171C188.927 167.984 187.452 168.979 186.172 170.155C184.921 171.301 183.759 172.371 182.687 173.366C183.044 172.401 183.223 171.542 183.223 170.788C183.223 169.733 182.925 168.934 182.329 168.391C181.763 167.819 181.108 167.532 180.364 167.532C179.5 167.532 178.621 167.849 177.728 168.482C176.864 169.115 176.164 170.08 175.628 171.376C174.972 172.944 174.079 174.963 172.947 177.435C171.899 179.787 170.81 182.206 169.681 184.694C168.865 185.446 168.002 186.192 167.094 186.932C165.784 188.047 164.399 188.981 162.939 189.735C161.51 190.489 160.199 190.866 159.008 190.866C158.263 190.866 157.682 190.745 157.265 190.504C156.878 190.233 156.684 189.69 156.684 188.876C156.684 187.881 156.923 186.751 157.399 185.484C157.876 184.188 158.427 182.907 159.052 181.641C159.678 180.375 160.199 179.304 160.616 178.43C161.122 177.375 161.614 176.335 162.09 175.31C162.567 174.255 163.133 173.124 163.788 171.919C163.937 171.647 164.026 171.376 164.056 171.105C164.116 170.833 164.16 170.562 164.19 170.291C164.19 169.145 163.773 168.211 162.939 167.487C162.135 166.733 161.167 166.357 160.035 166.357C159.35 166.357 158.68 166.537 158.025 166.899C157.369 167.261 156.789 167.864 156.282 168.708L154.763 171.873C154.346 172.717 153.944 173.547 153.557 174.36C153.2 175.174 152.946 175.777 152.797 176.169C152.321 177.375 151.666 178.792 150.832 180.42C150.027 182.018 149.283 183.736 148.598 185.575C147.942 187.384 147.615 189.208 147.615 191.047C147.615 193.699 148.3 195.659 149.67 196.925ZM233.575 184.625C235.511 183.6 237.476 182.41 239.472 181.053C241.497 179.666 243.031 178.656 244.074 178.023C245.474 177.119 246.397 176.32 246.844 175.627C247.35 174.873 247.603 174.24 247.603 173.727C247.603 173.275 247.454 172.913 247.157 172.642C246.888 172.371 246.576 172.205 246.218 172.145L245.816 172.099H245.414C243.776 172.099 242.257 172.582 240.857 173.547C239.487 174.481 238.325 175.657 237.372 177.074C236.359 178.551 235.54 179.938 234.915 181.234C234.319 182.53 233.872 183.661 233.575 184.625Z" fill="white"/>
<path fill-rule="evenodd" clip-rule="evenodd" d="M91.7678 194.121C93.3464 195.629 95.1782 196.382 97.2631 196.382C99.4077 196.382 101.463 195.704 103.429 194.348C107.578 191.527 111.091 186.691 113.749 182.455C114.175 181.776 114.583 181.112 114.978 180.467L114.98 180.465C115.807 179.117 116.583 177.853 117.368 176.712C118.559 175.024 119.542 173.411 120.317 171.873C121.091 170.336 121.478 168.723 121.478 167.035C121.478 165.919 121.225 164.97 120.719 164.186C120.213 163.372 119.349 162.965 118.128 162.965C117.085 162.965 116.043 163.734 115 165.271C113.958 166.779 112.9 168.602 111.828 170.743C110.726 172.913 109.535 175.189 108.254 177.571C107.003 179.922 105.663 181.852 104.233 183.359C103.101 184.897 102.059 186.102 101.105 186.977C100.152 187.851 99.2885 188.288 98.5141 188.288C98.1567 188.288 97.8737 187.911 97.6652 187.158C97.4567 186.374 97.3525 185.756 97.3525 185.304C97.3525 183.465 97.6652 181.415 98.2907 179.154C98.9162 176.893 99.6311 174.617 100.435 172.326C101.269 170.004 101.984 167.864 102.58 165.904C102.699 165.693 102.758 165.407 102.758 165.045C102.758 164.261 102.386 163.613 101.642 163.101C100.897 162.588 100.137 162.332 99.363 162.332C98.4992 162.332 97.6057 162.618 96.6823 163.191C95.7888 163.734 95.0442 164.638 94.4485 165.904C94.0017 167.261 93.3762 169.19 92.572 171.693C91.7678 174.165 91.0381 176.817 90.3828 179.651C90.248 180.228 90.1271 180.795 90.0201 181.354C89.8257 181.472 89.619 181.597 89.3999 181.731C87.8213 182.696 85.9299 183.721 83.7258 184.806C81.5217 185.922 79.2283 186.916 76.8455 187.791C74.4627 188.635 72.2437 189.057 70.1885 189.057C67.5377 189.057 66.0484 188.122 65.7208 186.253C69.7715 184.746 73.1372 183.254 75.8179 181.776C78.5283 180.269 80.6878 178.792 82.2962 177.345C83.9045 175.928 85.0364 174.526 85.6917 173.14C86.3469 171.753 86.6746 170.426 86.6746 169.16C86.6746 167.02 86.064 165.347 84.8428 164.141C83.6216 162.935 81.7749 162.332 79.3027 162.332C75.8775 162.332 72.7054 163.071 69.7864 164.548C66.8973 165.995 64.4102 167.834 62.3253 170.065C60.2403 172.295 58.6319 174.632 57.5001 177.074C56.398 179.485 55.847 181.671 55.847 183.63C55.847 185.861 56.2789 187.956 57.1427 189.916C58.0362 191.845 59.317 193.413 60.9849 194.619C62.6827 195.795 64.723 196.382 67.1058 196.382C70.1736 196.382 73.3159 195.795 76.5327 194.619C79.7495 193.443 82.6685 192.117 85.2896 190.64C86.7244 189.813 88.0993 188.965 89.4142 188.098C89.5273 190.696 90.3118 192.703 91.7678 194.121ZM65.0506 181.053C66.9866 180.028 68.9524 178.837 70.948 177.481C72.9734 176.094 74.5074 175.084 75.5498 174.451C76.9497 173.547 77.8731 172.748 78.3198 172.054C78.8262 171.301 79.0794 170.668 79.0794 170.155C79.0794 169.703 78.9304 169.341 78.6326 169.07C78.3645 168.798 78.0518 168.633 77.6944 168.572L77.2923 168.527H76.8902C75.252 168.527 73.7329 169.009 72.333 169.974C70.9629 170.909 69.8013 172.084 68.8482 173.501C67.8355 174.978 67.0164 176.365 66.3909 177.661C65.7952 178.958 65.3484 180.088 65.0506 181.053Z" fill="white"/>
</g>
<defs>
<clipPath id="clip0_85_1118">
<rect width="264" height="200" fill="white"/>
</clipPath>
</defs>
</svg>
